# xmcd
#
# Track frame offsets: 
#        150
#        16955
#        32888
#        46084
#        64473
#        76887
#        90883
#        100018
#        110600
#        121618
#        135675
#        145486
#        157066
#        171759
#        185765
#        194744
#        220081
#        234653
#        252171
#        265605
#        282921
#        301181
#        313620
#
# Disc length: 4351 seconds
#
# Revision: 1
# Processed by: cddbd v1.5.2PL0 Copyright (c) Steve Scherf et al.
# Submitted via: ExactAudioCopy v0.99pb5
#
DISCID=4110fd17
DTITLE=Various Artist - Oil City Confidential
DYEAR=2010
DGENRE=R&B
TTITLE0=Dr. Feelgood - Going Back Home [Live]
TTITLE1=Dr. Feelgood - (Get Your Kicks On) Route 66 [Live]
TTITLE2=Dr. Feelgood - Roxette
TTITLE3=Dr. Feelgood - Cheque Book
TTITLE4=Dr. Feelgood - I Can Tell
TTITLE5=Dr. Feelgood - She Does It Right [Live]
TTITLE6=Dr. Feelgood - Twenty Yards Behind [Live]
TTITLE7=Johnny Kidd And The Pirates - Shakin' All Over
TTITLE8=Dr. Feelgood - I Don't Mind [Live]
TTITLE9=Dr. Feelgood - All Through The City [Live]
TTITLE10=The Paramounts - Poison Ivy
TTITLE11=Dr. Feelgood - You Shouldn't Call The Doctor (If You Can't Af
TTITLE11=ford The Bills)
TTITLE12=Dr. Feelgood - I'm A Hog For You Baby [Live]
TTITLE13=Dr. Feelgood - Keep It Out Of Sight [Live]
TTITLE14=Johnny Kidd And The Pirates - A Shot Of Rhythm And Blues
TTITLE15=Dr. Feelgood - I'm A Man [Live]
TTITLE16=Dr. Feelgood - Back In The Night [Live]
TTITLE17=Dr. Feelgood - Riot In Cell Block Number Nine [Live]
TTITLE18=Dr. Feelgood - Time And The Devil
TTITLE19=Dr. Feelgood - Sneakin' Suspicion
TTITLE20=Dr. Feelgood - Paradise
TTITLE21=Dr. Feelgood - Lucky Seven
TTITLE22=Dr. Feelgood - Milk And Alcohol
EXTD=
EXTT0=
EXTT1=
EXTT2=
EXTT3=
EXTT4=
EXTT5=
EXTT6=
EXTT7=
EXTT8=
EXTT9=
EXTT10=
EXTT11=
EXTT12=
EXTT13=
EXTT14=
EXTT15=
EXTT16=
EXTT17=
EXTT18=
EXTT19=
EXTT20=
EXTT21=
EXTT22=
PLAYORDER=
